HIERARCHY
ROOT Hips
{
	OFFSET 0.000000 0.000000 0.000000
	CHANNELS 6 Xposition Yposition Zposition Zrotation Yrotation Xrotation 
	JOINT LHipJoint
	{
		OFFSET 0.000000 0.000000 0.000000
		CHANNELS 3 Zrotation Yrotation Xrotation
		JOINT LeftUpLeg
		{
			OFFSET 1.363060 -1.794630 0.839290
			CHANNELS 3 Zrotation Yrotation Xrotation
			JOINT LeftLeg
			{
				OFFSET 2.448110 -6.726130 0.000000
				CHANNELS 3 Zrotation Yrotation Xrotation
				JOINT LeftFoot
				{
					OFFSET 2.562200 -7.039590 0.000000
					CHANNELS 3 Zrotation Yrotation Xrotation
					JOINT LeftToeBase
					{
						OFFSET 0.157640 -0.433110 2.322550
						CHANNELS 3 Zrotation Yrotation Xrotation
						End Site
						{
							OFFSET 0.000000 0.000000 0.000000
						}
					}
				}
			}
		}
	}
	JOINT RHipJoint
	{
		OFFSET 0.000000 0.000000 0.000000
		CHANNELS 3 Zrotation Yrotation Xrotation
		JOINT RightUpLeg
		{
			OFFSET -1.305520 -1.794630 0.839290
			CHANNELS 3 Zrotation Yrotation Xrotation
			JOINT RightLeg
			{
				OFFSET -2.542530 -6.985550 0.000000
				CHANNELS 3 Zrotation Yrotation Xrotation
				JOINT RightFoot
				{
					OFFSET -2.568260 -7.056230 0.000000
					CHANNELS 3 Zrotation Yrotation Xrotation
					JOINT RightToeBase
					{
						OFFSET -0.164730 -0.452590 2.363150
						CHANNELS 3 Zrotation Yrotation Xrotation
						End Site
						{
							OFFSET 0.000000 0.000000 0.000000
						}
					}
				}
			}
		}
	}
	JOINT LowerBack
	{
		OFFSET 0.000000 0.000000 0.000000
		CHANNELS 3 Zrotation Yrotation Xrotation
		JOINT Spine
		{
			OFFSET 0.028270 2.035590 -0.193380
			CHANNELS 3 Zrotation Yrotation Xrotation
			JOINT Spine1
			{
				OFFSET 0.056720 2.048850 -0.042750
				CHANNELS 3 Zrotation Yrotation Xrotation
				JOINT Neck
				{
					OFFSET 0.000000 0.000000 0.000000
					CHANNELS 3 Zrotation Yrotation Xrotation
					JOINT Neck1
					{
						OFFSET -0.054170 1.746240 0.172020
						CHANNELS 3 Zrotation Yrotation Xrotation
						JOINT Head
						{
							OFFSET 0.104070 1.761360 -0.123970
							CHANNELS 3 Zrotation Yrotation Xrotation
							End Site
							{
								OFFSET 0.000000 0.000000 0.000000
							}
						}
					}
				}
				JOINT LeftShoulder
				{
					OFFSET 0.000000 0.000000 0.000000
					CHANNELS 3 Zrotation Yrotation Xrotation
					JOINT LeftArm
					{
						OFFSET 3.362410 1.200890 -0.311210
						CHANNELS 3 Zrotation Yrotation Xrotation
						JOINT LeftForeArm
						{
							OFFSET 4.983000 -0.000000 -0.000000
							CHANNELS 3 Zrotation Yrotation Xrotation
							JOINT LeftHand
							{
								OFFSET 3.483560 -0.000000 -0.000000
								CHANNELS 3 Zrotation Yrotation Xrotation
								JOINT LeftFingerBase
								{
									OFFSET 0.000000 0.000000 0.000000
									CHANNELS 3 Zrotation Yrotation Xrotation
									JOINT LeftHandIndex1
									{
										OFFSET 0.715260 -0.000000 -0.000000
										CHANNELS 3 Zrotation Yrotation Xrotation
										End Site
										{
											OFFSET 0.000000 0.000000 0.000000
										}
									}
								}
								JOINT LThumb
								{
									OFFSET 0.000000 0.000000 0.000000
									CHANNELS 3 Zrotation Yrotation Xrotation
									End Site
									{
										OFFSET 0.000000 0.000000 0.000000
									}
								}
							}
						}
					}
				}
				JOINT RightShoulder
				{
					OFFSET 0.000000 0.000000 0.000000
					CHANNELS 3 Zrotation Yrotation Xrotation
					JOINT RightArm
					{
						OFFSET -3.136600 1.374050 -0.404650
						CHANNELS 3 Zrotation Yrotation Xrotation
						JOINT RightForeArm
						{
							OFFSET -5.241900 -0.000000 -0.000000
							CHANNELS 3 Zrotation Yrotation Xrotation
							JOINT RightHand
							{
								OFFSET -3.444170 -0.000000 -0.000000
								CHANNELS 3 Zrotation Yrotation Xrotation
								JOINT RightFingerBase
								{
									OFFSET 0.000000 0.000000 0.000000
									CHANNELS 3 Zrotation Yrotation Xrotation
									JOINT RightHandIndex1
									{
										OFFSET -0.622530 -0.000000 -0.000000
										CHANNELS 3 Zrotation Yrotation Xrotation
										End Site
										{
											OFFSET 0.000000 0.000000 0.000000
										}
									}
								}
								JOINT RThumb
								{
									OFFSET 0.000000 0.000000 0.000000
									CHANNELS 3 Zrotation Yrotation Xrotation
									End Site
									{
										OFFSET 0.000000 0.000000 0.000000
									}
								}
							}
						}
					}
				}
			}
		}
	}
}
MOTION
Frames: 12
Frame Time: 0.016667
-1.752027 16.063640 24.139480 -4.287875 1.993497 -1.007090 5.197801 5.372695 -9.195120 -21.708085 4.331766 8.372882 -5.656671 -10.794475 -31.929002 -0.031530 9.571928 19.291064 0.000000 0.000000 0.000000 8.488728 4.097142 -11.210923 18.973024 -1.184303 11.062231 6.189962 -19.343379 49.105254 -0.572100 26.341770 -58.698455 0.000000 0.000000 0.000000 -17.499631 -4.433019 17.531163 53.122956 -0.175380 0.505723 -13.018486 1.811815 -20.799649 14.991588 -10.653622 -27.821644 -37.001519 2.161880 26.196522 0.000000 0.000000 0.000000 -17.722828 22.916258 17.103283 -69.587470 8.196735 1.659398 -158.002790 -84.963477 -178.970112 -4.707393 -0.802954 0.517401 -4.760224 -0.830329 -0.000000 0.000000 0.000000 0.000000 0.000000 0.000000 0.000000 -7.730926 -5.237814 12.354631 49.939137 -3.919866 26.659789 171.813785 78.029356 178.661700 3.590293 -26.777748 -0.681054 3.813333 -26.774994 0.000000 0.000000 0.000000 0.000000 0.000000 0.000000 0.000000 
-1.766711 16.090202 24.327409 -3.986979 1.709751 -0.895899 5.553840 5.351580 -9.578310 -22.337247 4.785097 9.012687 -5.334366 -10.453726 -31.226201 -0.068172 8.806921 17.515336 0.000000 0.000000 0.000000 8.661286 3.945267 -10.672235 18.119731 -1.537800 11.038543 5.664005 -19.983357 48.627903 -1.257317 26.164315 -58.543665 0.000000 0.000000 0.000000 -17.726617 -4.345771 17.453533 52.980730 -0.118377 0.439900 -12.956956 1.808980 -20.811755 14.995316 -10.642319 -27.802925 -36.992034 2.171568 26.227689 0.000000 0.000000 0.000000 -17.721836 22.915764 17.119627 -69.563266 8.212714 1.677188 -158.011320 -84.966136 -178.969895 -4.709185 -0.800621 0.517510 -4.762027 -0.827998 -0.000000 0.000000 0.000000 0.000000 0.000000 0.000000 0.000000 -7.672250 -5.284877 12.345290 49.877317 -3.944061 26.683723 171.801586 78.011508 178.659932 3.595674 -26.768406 -0.681966 3.818949 -26.765641 0.000000 0.000000 0.000000 0.000000 0.000000 0.000000 0.000000 
-1.778852 16.118015 24.511592 -3.700873 1.406435 -0.778807 5.884756 5.347758 -9.957463 -22.929336 5.218258 9.596307 -5.033550 -10.086205 -30.463684 -0.092561 8.065768 15.746460 0.000000 0.000000 0.000000 8.835080 3.766278 -10.132203 17.251520 -1.871462 10.981482 5.135371 -20.628280 48.146708 -1.989978 26.025929 -58.334977 0.000000 0.000000 0.000000 -17.945554 -4.258740 17.373608 52.853488 -0.051541 0.360963 -12.902191 1.811091 -20.817391 14.998851 -10.633478 -27.782660 -36.989221 2.183700 26.265559 0.000000 0.000000 0.000000 -17.722846 22.919387 17.138580 -69.539266 8.232780 1.691287 -158.017639 -84.966016 -178.969611 -4.714498 -0.794511 0.517652 -4.767341 -0.821894 -0.000000 0.000000 0.000000 0.000000 0.000000 0.000000 0.000000 -7.616431 -5.326149 12.338965 49.815975 -3.971520 26.706380 171.784478 77.988658 178.657743 3.602291 -26.756404 -0.683084 3.825799 -26.753635 0.000000 0.000000 0.000000 0.000000 0.000000 0.000000 0.000000 
-1.788023 16.146674 24.691455 -3.429804 1.081639 -0.662605 6.191110 5.361096 -10.328163 -23.483410 5.631814 10.128311 -4.758627 -9.695270 -29.649333 -0.106418 7.352330 13.994944 0.000000 0.000000 0.000000 9.005656 3.559977 -9.596334 16.367306 -2.194171 10.896677 4.608561 -21.288161 47.659459 -2.753752 25.925743 -58.086030 0.000000 0.000000 0.000000 -18.153227 -4.173210 17.284604 52.728377 0.012588 0.296476 -12.847140 1.817118 -20.826379 15.006389 -10.626213 -27.765360 -36.992937 2.195768 26.301338 0.000000 0.000000 0.000000 -17.724919 22.925748 17.156797 -69.516237 8.252709 1.703484 -158.023199 -84.965538 -178.969367 -4.718540 -0.789712 0.517774 -4.771386 -0.817100 -0.000000 0.000000 0.000000 0.000000 0.000000 0.000000 0.000000 -7.561759 -5.362867 12.331115 49.755312 -3.997216 26.725410 171.759284 77.957867 178.654952 3.611117 -26.739889 -0.684504 3.834881 -26.737116 0.000000 0.000000 0.000000 0.000000 0.000000 0.000000 0.000000 
-1.793621 16.175755 24.866963 -3.174627 0.734001 -0.548450 6.474780 5.392558 -10.688288 -23.999893 6.025295 10.611261 -4.515889 -9.284636 -28.789591 -0.111355 6.667385 12.265584 0.000000 0.000000 0.000000 9.169699 3.324318 -9.068748 15.466591 -2.508687 10.784523 4.087932 -21.970098 47.166606 -3.537150 25.864556 -57.810182 0.000000 0.000000 0.000000 -18.348950 -4.088755 17.186784 52.605107 0.073954 0.247970 -12.791667 1.827470 -20.839185 15.018247 -10.620559 -27.751379 -37.003484 2.207777 26.334976 0.000000 0.000000 0.000000 -17.728136 22.935152 17.174171 -69.494116 8.272507 1.713739 -158.027974 -84.964692 -178.969165 -4.721251 -0.786284 0.517876 -4.774103 -0.813675 -0.000000 0.000000 0.000000 0.000000 0.000000 0.000000 0.000000 -7.508159 -5.394832 12.321614 49.695293 -4.021021 26.740749 171.725730 77.918852 178.651540 3.622233 -26.718682 -0.686234 3.846278 -26.715907 0.000000 0.000000 0.000000 0.000000 0.000000 0.000000 0.000000 
-1.796063 16.204954 25.037665 -2.936485 0.358582 -0.441803 6.738262 5.443576 -11.033618 -24.478552 6.400150 11.049520 -4.302031 -8.857267 -27.894239 -0.108803 6.013881 10.568405 0.000000 0.000000 0.000000 9.324512 3.057728 -8.553576 14.551074 -2.818273 10.647422 3.578596 -22.682615 46.668245 -4.332351 25.840335 -57.514846 0.000000 0.000000 0.000000 -18.534115 -4.007371 17.074166 52.488958 0.124034 0.237224 -12.738733 1.843396 -20.864024 15.032150 -10.617502 -27.742171 -37.020985 2.218239 26.362604 0.000000 0.000000 0.000000 -17.734422 22.950234 17.189505 -69.471884 8.293689 1.728949 -158.038610 -84.968067 -178.968711 -4.728522 -0.779535 0.518103 -4.781378 -0.806932 -0.000000 0.000000 0.000000 0.000000 0.000000 0.000000 0.000000 -7.453047 -5.423008 12.306428 49.630319 -4.041050 26.753170 171.678620 77.866639 178.646937 3.637400 -26.690303 -0.688561 3.861801 -26.687527 0.000000 0.000000 0.000000 0.000000 0.000000 0.000000 0.000000 
-1.795677 16.234004 25.203715 -2.715710 -0.046234 -0.344244 6.983721 5.514548 -11.362242 -24.920470 6.757124 11.446692 -4.114650 -8.415968 -26.970231 -0.099994 5.391362 8.907017 0.000000 0.000000 0.000000 9.467555 2.758975 -8.054305 13.621357 -3.124202 10.486301 3.088735 -23.431950 46.162396 -5.135668 25.852664 -57.206434 0.000000 0.000000 0.000000 -18.708660 -3.928643 16.946378 52.380052 0.162070 0.267610 -12.688383 1.865317 -20.902091 15.048384 -10.617164 -27.738348 -37.045985 2.227100 26.383961 0.000000 0.000000 0.000000 -17.744039 22.971435 17.202613 -69.449433 8.316321 1.749454 -158.055453 -84.975930 -178.967987 -4.740661 -0.769232 0.518464 -4.793519 -0.796637 -0.000000 0.000000 0.000000 0.000000 0.000000 0.000000 0.000000 -7.396224 -5.447219 12.285102 49.560005 -4.057033 26.762513 171.617144 77.800441 178.641093 3.656871 -26.654232 -0.691511 3.881706 -26.651458 0.000000 0.000000 0.000000 0.000000 0.000000 0.000000 0.000000 
-1.793185 16.262673 25.365227 -2.514102 -0.477027 -0.253614 7.214425 5.603631 -11.676688 -25.326953 7.096196 11.805190 -3.949095 -7.963118 -26.021862 -0.085732 4.797598 7.283643 0.000000 0.000000 0.000000 9.595591 2.431782 -7.582582 12.680512 -3.433048 10.305903 2.630954 -24.226524 45.643238 -5.944282 25.898575 -56.887332 0.000000 0.000000 0.000000 -18.873666 -3.849981 16.818975 52.291725 0.204158 0.303359 -12.648872 1.894428 -20.938927 15.059776 -10.620308 -27.731455 -37.075692 2.236249 26.406711 0.000000 0.000000 0.000000 -17.756381 22.998444 17.217497 -69.426220 8.345622 1.776194 -158.080229 -84.988211 -178.966848 -4.763231 -0.749651 0.519032 -4.816077 -0.777074 -0.000000 0.000000 0.000000 0.000000 0.000000 0.000000 0.000000 -7.339039 -5.466053 12.262189 49.484809 -4.073904 26.770712 171.544221 77.722695 178.634186 3.679536 -26.611618 -0.694989 3.904835 -26.608855 0.000000 0.000000 0.000000 0.000000 0.000000 0.000000 0.000000 
-1.788954 16.290878 25.522426 -2.332010 -0.935074 -0.171056 7.432123 5.710852 -11.975537 -25.698897 7.417988 12.127965 -3.802050 -7.500445 -25.053740 -0.066905 4.231724 5.700165 0.000000 0.000000 0.000000 9.706847 2.076111 -7.141942 11.729942 -3.745108 10.107046 2.214191 -25.071238 45.107996 -6.757359 25.977185 -56.560811 0.000000 0.000000 0.000000 -19.029370 -3.770849 16.692655 52.225485 0.250753 0.344820 -12.620998 1.931127 -20.974534 15.065977 -10.627218 -27.721351 -37.110703 2.245819 26.431234 0.000000 0.000000 0.000000 -17.771740 23.031649 17.234395 -69.402104 8.382216 1.809763 -158.113678 -85.005332 -178.965258 -4.797248 -0.719842 0.519825 -4.850063 -0.747293 -0.000000 0.000000 0.000000 0.000000 0.000000 0.000000 0.000000 -7.281414 -5.479188 12.237546 49.404219 -4.091868 26.777672 171.458928 77.632441 178.626154 3.705664 -26.561791 -0.699027 3.931450 -26.559048 0.000000 0.000000 0.000000 0.000000 0.000000 0.000000 0.000000 
-1.783552 16.318575 25.675840 -2.169457 -1.424372 -0.101447 7.637581 5.838498 -12.252314 -26.036379 7.722964 12.418335 -3.667498 -7.029992 -24.071251 -0.044107 3.692186 4.156887 0.000000 0.000000 0.000000 9.800032 1.688220 -6.732933 10.770584 -4.059775 9.889157 1.843543 -25.973975 44.555937 -7.577626 26.087989 -56.228911 0.000000 0.000000 0.000000 -19.175724 -3.693005 16.556154 52.174363 0.288270 0.424428 -12.599899 1.974939 -21.019992 15.073386 -10.636487 -27.717708 -37.152936 2.254701 26.452778 0.000000 0.000000 0.000000 -17.790927 23.071775 17.249256 -69.377962 8.421725 1.849940 -158.154746 -85.027866 -178.963291 -4.839807 -0.682957 0.520805 -4.892580 -0.710442 -0.000000 0.000000 0.000000 0.000000 0.000000 0.000000 0.000000 -7.223826 -5.487271 12.209683 49.318329 -4.106167 26.784728 171.367502 77.537204 178.617472 3.733824 -26.509012 -0.703391 3.960146 -26.506292 0.000000 0.000000 0.000000 0.000000 0.000000 0.000000 0.000000 
-1.777191 16.345774 25.825707 -2.027004 -1.946498 -0.046795 7.832122 5.986675 -12.504748 -26.339681 8.011480 12.678940 -3.543322 -6.553029 -23.077591 -0.017948 3.178217 2.654764 0.000000 0.000000 0.000000 9.873395 1.268542 -6.359545 9.805003 -4.376216 9.653137 1.528617 -26.938968 43.984010 -8.405149 26.230732 -55.894551 0.000000 0.000000 0.000000 -19.312805 -3.616307 16.409028 52.139560 0.315521 0.546502 -12.586112 2.026221 -21.076657 15.082260 -10.648353 -27.721437 -37.203463 2.262918 26.471201 0.000000 0.000000 0.000000 -17.814486 23.119353 17.261930 -69.353743 8.464470 1.897561 -158.204397 -85.056508 -178.960904 -4.892001 -0.638019 0.521993 -4.944719 -0.665547 -0.000000 0.000000 0.000000 0.000000 0.000000 0.000000 0.000000 -7.166196 -5.489955 12.178214 49.226378 -4.116542 26.791882 171.269294 77.436407 178.608078 3.764250 -26.452915 -0.708113 3.991162 -26.450221 0.000000 0.000000 0.000000 0.000000 0.000000 0.000000 0.000000 
-1.770499 16.372541 25.972774 -1.902810 -2.499023 -0.013091 8.015324 6.153106 -12.729722 -26.609443 8.284492 12.914714 -3.423938 -6.069663 -22.071523 0.011249 2.685937 1.189584 0.000000 0.000000 0.000000 9.922192 0.814436 -6.026021 8.835558 -4.697564 9.402138 1.282240 -27.975082 43.386413 -9.241732 26.403576 -55.556643 0.000000 0.000000 0.000000 -19.434028 -3.537198 16.246043 52.092749 0.322122 0.735363 -12.568687 2.082058 -21.154729 15.099394 -10.657748 -27.739232 -37.251926 2.268759 26.482638 0.000000 0.000000 0.000000 -17.839068 23.171209 17.266725 -69.329038 8.500623 1.946799 -158.253598 -85.085712 -178.958602 -4.942212 -0.595075 0.523139 -4.994876 -0.622644 -0.000000 0.000000 0.000000 0.000000 0.000000 0.000000 0.000000 -7.109163 -5.492045 12.142202 49.138777 -4.119105 26.798882 171.176087 77.341875 178.599096 3.793081 -26.399576 -0.712632 4.020584 -26.396905 0.000000 0.000000 0.000000 0.000000 0.000000 0.000000 0.000000 
